<?xml version="1.0" encoding="utf-8"?>
<!-- Generator: Adobe Illustrator 16.0.0, SVG Export Plug-In . SVG Version: 6.00 Build 0)  -->
<!DOCTYPE svg PUBLIC "-//W3C//DTD SVG 1.1//EN" "http://www.w3.org/Graphics/SVG/1.1/DTD/svg11.dtd">
<svg version="1.1" id="圖層_1" xmlns="http://www.w3.org/2000/svg" xmlns:xlink="http://www.w3.org/1999/xlink" x="0px" y="0px"
	 width="278.924px" height="181px" viewBox="0 0 278.924 181" enable-background="new 0 0 278.924 181" xml:space="preserve">
<g>
	<path d="M1.994,219.402c0,6.808-2.492,16.651-7.475,29.532c-4.984,12.881-12.655,27.961-23.012,45.241
		c0.146,0.524,0.317,1.087,0.513,1.688c0.194,0.603,0.293,1.166,0.293,1.689c0,0.105-0.073,0.302-0.22,0.589
		c-0.146,0.289-0.318,0.589-0.513,0.903c-0.196,0.314-0.318,0.524-0.366,0.628l-5.35,9.425c-0.586,1.1-1.198,1.65-1.832,1.65
		c-0.586,0-1.075-0.211-1.466-0.629l-4.544-3.535c-0.685-0.629-1.026-1.281-1.026-1.963c0-0.68,1.147-3.037,3.444-7.069
		c1.661-2.879,3.896-6.833,6.706-11.86c2.809-5.027,5.068-9.163,6.779-12.41c1.709-3.246,3.798-7.5,6.266-12.763
		c2.466-5.262,4.727-10.407,6.779-15.434c4.738-11.572,7.109-18.955,7.109-22.149c0-3.771-1.368-5.655-4.104-5.655
		c-2.052,0-4.972,1.113-8.758,3.338c-3.787,2.227-7.708,5.145-11.762,8.758c-4.056,3.613-7.427,7.383-10.114,11.31
		c-2.688,3.927-4.031,7.383-4.031,10.368c0,0.471,0.122,0.825,0.367,1.061c0.244,0.235,0.684,0.353,1.319,0.353
		c1.173,0,3.178-0.565,5.716-2.199c6.372-4.103,18.646-15.981,19.455-15.769c3.5,0.917-16.13,19.858-20.896,22.588
		c-4.417,2.531-6.637,1.599-8.396,1.599c-1.515,0-2.311,1.138-2.688-2.75c-0.169-1.742-0.235-5.313-0.188-7.063
		c0.208-7.675,2.049-9.472,4.688-13.688c2.638-4.214,4.819-7.223,7.75-10.313c3.372-3.613,6.988-6.172,11.313-9
		c4.324-2.827,6.705-3.054,10.688-4.625c3.981-1.571,8.119-1.063,10.563-1.063L1.994,219.402z"/>
	<path d="M3.826,269.041c7.426-7.226,14.632-12.593,21.62-16.101c6.986-3.508,12.385-5.263,16.196-5.263
		c1.026,0,1.979,0.459,2.858,1.375c0.879,0.917,1.576,1.977,2.089,3.181c0.513,1.205,0.77,2.095,0.77,2.67
		c0,0.942-0.342,1.637-1.026,2.082c-0.685,0.445-1.882,0.981-3.591,1.61c0.341,0.838,0.781,1.912,1.319,3.22
		c0.537,1.31,0.953,2.37,1.246,3.181c0.293,0.813,0.44,1.532,0.44,2.16c0,1.256-1.185,3.601-3.555,7.029
		c-2.37,3.43-4.031,5.957-4.983,7.58c-0.953,1.624-1.429,3.613-1.429,5.969c0,3.875,1.66,5.812,4.983,5.812
		c3.419,0,8.769-3.429,16.049-10.289v4.791c-12.361,14.715-21.205,22.071-26.529,22.071c-1.906,0-3.261-0.668-4.067-2.004
		c-0.806-1.334-1.209-3.311-1.209-5.93c0-4.135,1.393-10.131,4.177-17.986c-7.134,8.483-12.435,14.519-15.903,18.105
		c-3.47,3.586-6.328,5.379-8.575,5.379c-1.075,0-2.418-0.994-4.031-2.984c-1.612-1.988-3.042-4.567-4.287-7.736
		c-1.246-3.167-1.869-6.453-1.869-9.857c0-2.46,0.22-4.516,0.659-6.166c0.44-1.649,1.294-3.338,2.565-5.066
		C-0.987,274.146,1.041,271.869,3.826,269.041z M38.93,260.401c-12.704,6.232-21.754,11.52-27.152,15.866
		c-5.399,4.347-8.098,8.824-8.098,13.431c0,1.677,0.268,3.051,0.806,4.124c0.537,1.074,1.27,1.61,2.199,1.61
		c0.537,0,1.49-0.366,2.858-1.1c5.13-3.246,9.82-7.474,14.071-12.685C27.864,276.438,32.968,269.355,38.93,260.401z"/>
	<path d="M105.547,268.884c-8.6,10.264-12.898,17.411-12.898,21.442c0,2.252,0.854,3.377,2.565,3.377
		c1.417,0,3.261-0.798,5.533-2.396c2.271-1.597,5.826-4.438,10.663-8.522v5.419c-6.938,7.332-12.264,12.62-15.977,15.865
		c-3.713,3.248-6.742,4.871-9.087,4.871c-4.007,0-6.01-2.828-6.01-8.483c0-1.675,0.244-3.325,0.733-4.948
		c0.488-1.623,1.16-3.312,2.016-5.066c0.854-1.753,2.162-4.267,3.921-7.54c1.759-3.271,3.786-6.977,6.083-11.114
		c-2.785,1.52-6.278,4.53-10.48,9.032c-2.737,2.828-5.057,5.512-6.962,8.051c-1.906,2.541-3.946,5.368-6.12,8.483
		c-2.174,3.116-3.763,5.21-4.764,6.283c-1.002,1.074-2.015,1.611-3.042,1.611c-1.564,0-3.004-1.754-4.324-5.263
		c-1.319-3.507-1.979-7.591-1.979-12.252c0-2.879,0.304-5.131,0.916-6.755c0.61-1.622,1.819-3.927,3.627-6.912
		c3.371-5.55,6.277-9.622,8.721-12.213c2.442-2.592,4.788-3.888,7.036-3.888c1.563,0,2.821,0.289,3.774,0.864
		c0.953,0.577,1.429,1.466,1.429,2.67c0,0.524-0.146,1.074-0.439,1.649c-0.293,0.577-0.623,1.1-0.99,1.571
		c-0.366,0.471-1.136,1.388-2.309,2.749c-7.72,9.164-11.579,15.107-11.579,17.829c0,1.52,0.464,2.278,1.393,2.278
		c0.586,0,1.722-1.007,3.408-3.024c1.686-2.015,3.859-4.66,6.522-7.933c2.663-3.272,5.814-6.688,9.454-10.25
		c3.639-3.56,7.78-6.99,12.422-10.289c2.589-1.937,4.738-2.906,6.449-2.906c0.781,0,1.55,1.152,2.309,3.456
		c0.757,2.305,1.136,4.634,1.136,6.99C108.698,264.774,107.647,266.528,105.547,268.884z"/>
</g>
<g>
	<path d="M53.275,339.178c7.426-7.227,14.632-12.594,21.62-16.102c6.986-3.508,12.385-5.263,16.196-5.263
		c1.026,0,1.979,0.459,2.858,1.374c0.879,0.918,1.576,1.978,2.089,3.182c0.513,1.205,0.77,2.095,0.77,2.67
		c0,0.943-0.342,1.638-1.026,2.082c-0.685,0.445-1.882,0.981-3.591,1.609c0.341,0.839,0.781,1.912,1.319,3.221
		c0.537,1.31,0.953,2.37,1.246,3.182c0.293,0.813,0.44,1.531,0.44,2.16c0,1.256-1.185,3.6-3.555,7.029
		c-2.37,3.43-4.031,5.957-4.983,7.579c-0.953,1.624-1.429,3.612-1.429,5.97c0,3.875,1.66,5.812,4.983,5.812
		c3.419,0,8.769-3.429,16.049-10.289v4.791c-12.361,14.715-21.205,22.071-26.529,22.071c-1.906,0-3.261-0.668-4.067-2.004
		c-0.806-1.335-1.209-3.311-1.209-5.93c0-4.136,1.393-10.132,4.177-17.986c-7.134,8.482-12.435,14.519-15.903,18.104
		c-3.47,3.587-6.328,5.38-8.575,5.38c-1.075,0-2.418-0.994-4.031-2.984c-1.612-1.989-3.042-4.568-4.287-7.736
		c-1.246-3.168-1.869-6.453-1.869-9.857c0-2.461,0.22-4.516,0.659-6.166c0.44-1.648,1.294-3.338,2.565-5.065
		C48.462,344.283,50.491,342.005,53.275,339.178z M88.379,330.537c-12.704,6.232-21.754,11.521-27.152,15.866
		c-5.399,4.347-8.098,8.823-8.098,13.431c0,1.677,0.268,3.051,0.806,4.123c0.537,1.074,1.27,1.611,2.199,1.611
		c0.537,0,1.49-0.366,2.858-1.1c5.13-3.246,9.82-7.475,14.071-12.686C77.313,346.574,82.418,339.491,88.379,330.537z"/>
	<path d="M140.633,352.373v5.812c-10.212,14.505-18.518,21.757-24.917,21.757c-3.47,0-6.193-2.029-8.171-6.088
		c-1.979-4.057-2.968-9.385-2.968-15.982c0-5.342,1.173-11.689,3.518-19.047c2.345-7.356,5.484-14.818,9.417-22.385
		c3.932-7.566,8.012-14.164,12.239-19.793c4.226-5.628,8.146-9.568,11.763-11.82c1.466-0.943,2.613-1.414,3.444-1.414
		c1.026,0,1.709,0.485,2.052,1.453c0.341,0.97,0.513,2.631,0.513,4.987c0,7.279-2.761,16.219-8.281,26.823
		c-5.521,10.603-13.217,21.43-23.085,32.478c-0.489,2.723-0.732,4.818-0.732,6.283c0,3.352,0.671,6.075,2.015,8.168
		c1.343,2.096,3.212,3.143,5.606,3.143c1.221,0,2.54-0.511,3.958-1.531c1.417-1.021,2.906-2.291,4.47-3.811
		C133.035,359.887,136.089,356.877,140.633,352.373z M118.72,338.234c2.54-2.67,4.995-5.706,7.365-9.111
		c2.369-3.402,4.604-7.041,6.706-10.917c2.1-3.874,3.749-7.356,4.947-10.446c1.197-3.089,1.795-5.419,1.795-6.99
		c0-1.204-0.392-1.806-1.172-1.806c-0.293,0-0.855,0.288-1.686,0.864c-2.981,2.619-6.328,7.736-10.041,15.355
		C122.921,322.801,120.283,330.486,118.72,338.234z"/>
	<path d="M175.004,353.236v5.734c-4.74,6.545-9.161,11.48-13.265,14.805c-4.104,3.326-7.598,4.988-10.48,4.988
		c-4.006,0-6.987-2.252-8.941-6.756c-1.955-4.502-2.931-9.425-2.931-14.766c0-2.042,0.194-3.992,0.586-5.852
		c0.391-1.857,0.854-3.39,1.393-4.595c0.537-1.204,1.539-3.089,3.005-5.655c6.937-11.571,13.289-17.357,19.054-17.357
		c2.98,0,4.471,1.23,4.471,3.691c0,1.676-0.965,4.294-2.895,7.854c-1.931,3.563-3.653,6.102-5.167,7.619
		c-4.25,4.398-7.024,7.461-8.318,9.189c-1.295,1.729-1.942,3.691-1.942,5.891c0,1.885,0.66,3.456,1.979,4.713
		c1.319,1.257,3.029,1.885,5.13,1.885c2.296,0,4.824-0.902,7.585-2.709C167.027,360.109,170.607,357.217,175.004,353.236z
		 M170.021,318.128c-1.222,0-2.382-0.497-3.481-1.493c-1.099-0.993-1.649-2.25-1.649-3.77c0-2.303,1.026-4.869,3.078-7.697
		c2.052-2.827,4.177-4.241,6.376-4.241c1.466,0,2.687,0.485,3.664,1.453c0.977,0.97,1.466,2.37,1.466,4.202
		c0,2.252-1.002,4.739-3.004,7.461C174.466,316.767,172.317,318.128,170.021,318.128z"/>
	<path d="M183.945,353.394l-1.319,6.598c-0.196,0.839-0.293,1.78-0.293,2.827c0,2.828,1.1,4.242,3.298,4.242
		c2.1,0,7.207-4.398,15.317-13.195c0.048-3.403,1.233-7.33,3.555-11.781c2.32-4.451,4.885-8.352,7.695-11.703
		c2.809-3.351,4.897-5.027,6.266-5.027c2.149,0,3.225,1.52,3.225,4.556c0,1.833-0.416,4.071-1.246,6.716
		c-0.831,2.645-2.052,5.498-3.664,8.561c-1.612,3.063-3.591,6.219-5.936,9.465c1.22,2.355,2.466,3.534,3.737,3.534
		c1.074,0,2.259-0.405,3.555-1.218c1.294-0.811,2.918-2.054,4.874-3.73v5.263c-2.737,2.305-4.899,3.876-6.486,4.712
		c-1.588,0.839-3.628,1.258-6.12,1.258c-0.978,0-2.737-0.707-5.277-2.121c-4.983,5.654-9.039,9.884-12.166,12.685
		c-3.127,2.802-5.668,4.202-7.622,4.202c-3.371,0-6.242-2.16-8.611-6.48c-2.37-4.319-3.554-9.071-3.554-14.255
		c0-6.964,3.665-15.315,10.993-25.056c2.198-2.932,3.969-4.935,5.313-6.008c1.343-1.073,2.87-1.61,4.581-1.61
		c1.466,0,2.858,0.288,4.177,0.864s1.979,1.256,1.979,2.041c0,2.619-1.637,6.455-4.91,11.508
		C192.031,345.291,188.244,349.676,183.945,353.394z"/>
	<path d="M234.586,356.064v1.963c0,3.09,0.708,5.498,2.125,7.227c1.417,1.728,3.272,2.592,5.569,2.592
		c2.394,0,4.874-0.602,7.439-1.807c2.565-1.204,5.117-2.801,7.658-4.791c2.54-1.99,5.643-4.66,9.308-8.012v4.791
		c-5.522,7.122-10.7,12.58-15.537,16.377c-4.837,3.795-9.747,5.693-14.73,5.693c-4.349,0-7.793-1.807-10.333-5.419
		c-2.541-3.612-3.811-8.562-3.811-14.845c0-5.498,1.196-10.485,3.591-14.963c2.394-4.477,6.303-9.201,11.726-14.176
		c3.712-3.404,7.402-5.97,11.066-7.697c3.665-1.729,6.937-2.593,9.82-2.593c2.296,0,4.116,0.563,5.46,1.688
		c1.343,1.127,2.016,2.816,2.016,5.066c0,3.299-1.149,6.586-3.445,9.857c-2.297,3.273-5.802,6.52-10.517,9.739
		C247.276,349.977,241.475,353.08,234.586,356.064z M235.319,350.959c4.397-1.832,8.159-4.11,11.286-6.834
		c3.126-2.722,5.435-5.327,6.925-7.814c1.49-2.486,2.235-4.307,2.235-5.459c0-1.203-0.513-1.807-1.539-1.807
		c-0.879,0-2.309,0.604-4.287,1.807c-1.979,1.205-3.983,2.776-6.01,4.713c-2.028,1.938-3.847,4.215-5.459,6.833
		C236.858,345.017,235.807,347.869,235.319,350.959z"/>
	<path d="M275.113,378.291c-0.831,0-1.539-0.34-2.125-1.021c-0.586-0.68-0.879-1.622-0.879-2.827c0-0.943,0.524-2.631,1.576-5.066
		c1.05-2.435,2.369-4.607,3.957-6.52c1.587-1.91,3.236-2.866,4.947-2.866c2.1,0,3.151,1.335,3.151,4.006
		c0,1.466-0.562,3.364-1.686,5.694c-1.125,2.33-2.517,4.347-4.177,6.048C278.215,377.441,276.627,378.291,275.113,378.291z"/>
</g>
<g>
	<path fill-rule="evenodd" clip-rule="evenodd" fill="#FFFFFF" d="M134.553,73.53c2.629,1.265,2.667,3.504,1.77,5.354
		c-3.311,6.827-6.383,13.217-9.719,20.031c-1.073,2.195-2.394,4.464-3.406,6.688c-0.312,0.683-0.601,1.31-0.781,2.053
		c-0.12,1.49,0.577,0.565,0.712,0.419c1.971-2.181,3.942-4.361,5.913-6.542c9.181-10.159,17.655-20.26,26.848-30.408
		c0.621-0.685,1.487-1.475,2.234-2c1.091-0.768,2.56-1.223,3.396-1.223c1.063,0.158,1.214,1.984,1.162,2.941
		c-0.112,2.065-0.404,4.194-1.076,6.141c-5.19,14.182-7.677,16.302-12.273,23.182c-2.712,4.06-5.032,6.634-7.615,10.779
		c-0.358,0.575-0.562,1.335-0.655,1.988c0.093,0.473,0.203,0.441,0.542,0.471c1.036-0.436,1.982-1.032,2.743-1.782
		c5.999-5.91,11.938-11.882,17.906-17.823c0.963-0.958,1.989-1.852,3.444-3.2c-1.067,4.967-20.949,25.478-26.765,24.612
		c-1.251-0.356-1.195-4.199-0.399-6.195c1.894-4.749,4.041-9.453,6.633-13.853c3.462-5.878,7.453-11.445,11.188-17.164
		c0.736-1.127,1.441-2.297,1.966-3.531c0.31-0.729,0.483-1.489,0.335-2.44c-0.041-0.316-0.084-0.485-0.691-0.322
		c-2.675,2.63-9.015,9.999-11.507,12.793c-10.637,11.925-13.43,15.705-24.157,28.167c-2.594,3.281-2.927,3.374-4.885,5.833
		c-3,3.417-7.36,4.971-9.678,4.444c-0.279-0.344,9.095-16.492,13.595-24.654c0.331-1.155,0.247-1.07-0.773-0.578
		c-5.374,5.379-10.721,10.786-16.129,16.129c-5.366,5.3-12.473,14.762-17.1,13.679c-1.637-0.56-2.54-4.083-0.888-13.394
		c-1.271,1.451-1.271,1.451-2.496,2.978c-3.598,4.465-6.943,8.155-11.031,11.625c-1.755,1.405-3.702,1.631-5.159,1.631
		c-1.647-0.316-2.844-2.688-3.132-4.776c-1.146-8.309,1.998-15.508,6.313-22.373c5.668-9.018,12.759-17.592,22.394-22.065
		c7.594-3.031,9.026-2.559,12.802-2.886c2.037,0.065,3.216,0.496,2.261,2.566c-2.326,5.048-4.829,10.015-7.312,14.99
		c-3.8,7.614-7.677,15.189-11.432,22.825c-0.657,1.337-0.977,2.87-1.253,4.35c-0.122,0.655,0.029,1.868,0.403,2.109
		c0.724,0.118,1.499-0.247,1.976-0.674c4.07-3.653,8.228-7.228,12.066-11.115c6.752-6.836,13.326-13.848,19.916-20.841
		c4.024-4.272,7.183-9.138,9.54-14.525C132.935,76.498,133.735,75.124,134.553,73.53z M68.494,124.561
		c0.219,1.372,0.093,2.575,1.043,2.734c1.267,0.063,2.153-0.19,3.304-1.277c0.351-0.332,0.765-0.65,1.119-1.008
		c9.058-9.119,17.32-18.834,22.953-30.529c1.679-3.486,3.409-6.948,5.033-10.459c0.242-0.524,0.274-1.606-0.026-1.817
		c-0.502-0.351-1.439-0.446-2.035-0.224c-1.804,0.671-3.67,1.334-5.266,2.377c-8.824,5.774-14.939,13.985-20.054,22.99
		C71.649,112.484,68.649,121.815,68.494,124.561z"/>
	<path fill-rule="evenodd" clip-rule="evenodd" fill="#FFFFFF" d="M189.486,106.793c-0.336-0.412-1.305-1.104-1.556-1.997
		c-0.793-2.832,1.911-6.923,4.816-7.602c2.46-0.575,4.141,1.101,3.577,3.565C195.606,103.899,192.806,106.677,189.486,106.793z"/>
	<path fill-rule="evenodd" clip-rule="evenodd" fill="#FFFFFF" d="M264.772,141.023c0.131-2.84,1.602-5,3.932-6.316
		c0.894-0.505,2.737-0.289,3.561,0.352c0.672,0.523,1.006,2.492,0.548,3.252c-1.126,1.867-2.568,3.713-4.308,4.991
		C266.736,144.601,264.793,143.227,264.772,141.023z"/>
	<path fill-rule="evenodd" clip-rule="evenodd" fill="#FFFFFF" d="M48.813,83.667c-7.25,7.5-12.345,12.644-18.141,15.447
		c-0.729,0.38-3.238,1.251-5.421,0.928c-2.837-0.42-4.047-2.151-4.75-4.125c-0.964-2.708-0.585-6.1,0.042-8.922
		c2.696-12.136,8.14-23.167,14.281-33.861C42.534,39.707,51.975,27.7,64.357,18.22c4.721-3.614,9.842-6.512,15.843-7.398
		c2.785-0.412,4.762,0.804,5.206,3.559c0.465,2.881,0.712,5.881,0.467,8.779c-0.993,11.745-5.224,22.602-9.583,33.402
		c-7.119,17.64-16.334,34.223-25.929,50.58c-13.016,22.188-26.644,43.995-42.319,64.447c-0.683,0.891-2.292,3.015-2.141,3.316
		c0.443,0.449,3.131-1.727,3.224-1.822c3.584-3.65,4.933-4.745,7.75-8.333c18.615-23.716,35.631-48.426,50.464-74.722
		C77.721,71.62,86.013,52.401,88.742,31.242c0.639-4.945,0.595-10.14-0.161-15.063c-0.934-6.068-5.035-7.754-11.034-6.307
		c-6.921,1.67-9.494,2.137-18.546,7.878c-13.997,8.877-23.07,20.309-31,34.875C22.212,63.26,18.256,74.483,16.412,86.6
		c-0.588,3.863-0.615,7.718,0.671,11.317c1.402,3.919,7.382,6.239,13.5,3.584c2.238-0.971,2.83-1.233,5.5-2.917
		c4.771-2.808,10.862-8.914,14.479-12.729l5.146-6.568c2.867-4,10.483-14.933,11.798-18.021c1.521-3.151,0.412-1.837-0.658-0.457
		c-0.471,0.724-2.459,3.317-10.083,13.62L48.813,83.667z"/>
	<path fill-rule="evenodd" clip-rule="evenodd" fill="#FFFFFF" d="M254.541,101.5c-4.688,2.25-4.618,2.511-7.219,4.344
		c-9.599,6.766-17.876,14.713-22.593,25.868c-1.932,4.57-5.649,6.712-9.767,8.511c-1.914,0.836-3.321-0.038-3.181-2.078
		c0.134-1.939,0.416-4.083,1.448-5.725c3.409-5.424,7.43-10.664,9.592-17.273c0.667-3.5-0.137-5.031-0.667-5.5
		c-1.833-1.625-4.13,2.191-4.833,3.833c-2.31,5.399-4.771,10.811-6.265,16.458c-1.105,4.178-2.544,7.957-5.172,11.325
		c-0.986,1.263-1.889,2.598-2.929,3.813c-3.449,4.029-6.793,8.207-11.575,10.768c-1.064,0.57-2.488,1.22-3.694,0.777
		c-0.694-0.57,0.063-2.534,0.536-3.606c4.018-9.095,8.11-18.158,12.244-27.201c1.843-4.033,5.782-8.72,5.76-12.004
		c-0.737-1.213-5.311-0.833-6.717,1.759c-2.089,3.852-4.006,7.797-6.07,11.664c-3.242,6.071-4.578,13.109-10.514,17.799
		c-6.395,5.051-12.197,10.846-18.316,16.251c-0.671,0.593-1.957,1.293-2.598,1.118c-0.5-0.252-0.083-2.099,0.262-2.731
		c5.731-10.499,11.426-21.021,17.278-31.452c2.102-3.747,4.636-7.249,6.885-10.916c0.391-0.637,0.59-1.613,0.394-2.293
		c-0.095-0.331-1.303-0.441-2.015-0.475c-2.455-0.118-4.09,1.124-5.283,3.198c-3.57,6.209-7.224,12.373-10.784,18.588
		c-1.714,2.991-2.77,6.547-5.046,8.986c-4.465,4.784-9.4,9.182-14.478,13.326c-3.886,3.171-8.218,5.826-12.496,8.475
		c-2.034,1.259-3.335,0.584-3.314-1.558c0.059-5.866,1.604-8.708,5.198-13.567c7.815-10.568,16.951-22.613,25.033-32.976
		c6.996-8.97,13.389-18.412,19.994-27.685c8.471-11.89,16.66-23.968,23.006-37.162c1.141-2.369,1.684-5.078,2.17-7.691
		c0.325-1.744-0.859-2.71-2.465-1.747c-2.646,1.588-5.388,3.196-7.587,5.317C186.93,61.446,177.168,74.583,167.773,88
		c-12.319,17.592-23.292,35.949-31.549,55.841c-2.042,4.918-3.85,9.286-8.012,13.675c-1.046,0.673-1.83,1.738-2.785,2.564
		c-4.455,3.858-8.91,7.716-13.42,11.509c-0.479,0.402-1.406,0.688-1.994,0.546c-0.605-0.575-0.469-1.293-0.359-2.123
		c0.063-0.478,0.197-1.002,0.421-1.448c3.049-6.096,6.008-12.241,9.21-18.256c3.841-7.213,7.914-14.303,11.817-21.484
		c0.351-0.644,0.537-1.842,0.181-2.278c-0.373-0.458-1.566-0.574-2.272-0.378c-4.134,1.146-8.378,2.074-12.311,3.729
		c-11.251,4.736-19.704,12.748-25.945,23.18c-3.598,6.014-5.767,12.416-4.862,19.481c0.236,1.846,0.732,2.717,2.006,4.036
		c1.751,1.263,5.023,0.164,6.436-1.133c4.844-4.447,5.245-4.915,8.875-8.75c0.821-0.867,3.361-4.415,4.265-5.203
		c0.768-0.627,0.813-0.1,0.862,0.323c-1.335,5.589-3.33,10.901-0.1,12.685c4.128,2.153,15.661-11.423,23.313-18.016
		c-0.19,3.236-0.552,6.159-0.489,9.073c0.1,4.664,1.535,6.598,6.972,3.282c5.852-3.568,10.471-8.321,15.879-12.58
		c2.867-2.257,5.438-4.891,8.429-7.616c-1.433,4.037-2.913,7.605-3.896,11.306c-0.35,1.316-0.578,4.256,0.817,4.444
		c0.908-0.029,2.692,0.065,5.311-1.645c5.403-3.98,8.429-6.954,13.188-10.966c2.84-2.393,5.429-5.082,8.215-7.718
		c-0.997,4.191-2.095,8.063-2.801,12.003c-0.574,3.208,1.198,4.583,4.278,3.556c1.424-0.475,2.913-1.068,4.078-1.914
		c4.785-3.476,7.801-7.136,11.425-10.968c2.266-2.395,4.766-6.126,6.86-8.898c0.196,1.298,0.048,0.844,0.323,2.143
		c0.94,4.449,1.697,4.162,5.725,1.929c2.212-1.227,4.257-2.75,6.486-4.212c-0.144,2.59-0.454,4.938-0.369,7.271
		c0.248,6.758,3.922,8.673,10,5.792c10.813-5.125,18.645-13.864,27.12-22.071c0.408-0.396,0.531-1.088,0.787-1.642
		c0.421-1.287-0.391-0.568-0.592-0.415c-1.104,0.979-2.25,1.917-3.308,2.944c-7.864,7.641-15.731,16.035-25.771,20.131
		c-1.892,0.772-4.754,0.861-4.528-2.489c0.212-3.141,1.127-6.279,2.099-9.3c0.417-1.294,1.55-2.628,2.721-3.368
		c9.244-5.837,17.652-12.674,25.089-20.677c2.585-2.782,5.025-5.743,5.286-9.819C261.011,102.027,259.916,98.75,254.541,101.5
		L254.541,101.5z M254.121,103.545c0.467-0.366,1.33-0.887,1.635-0.614c2.503,2.367-16.805,26.003-25.148,29.225
		c1.846-3.365,3.19-6.284,4.946-8.931c4.281-6.454,9.872-12.828,15.971-17.885c0.006-0.004,0.01-0.016,0.018-0.014L254.121,103.545z
		 M213.718,126.787c1.778-4.372,3.516-8.76,5.387-13.091c0.212-0.489,1.084-1.292,1.782-0.973c0.521,0.425,0.686,0.76,0.417,1.54
		c-2.408,6.978-3.779,8.963-6.362,13.087C212.366,131.322,212.239,131.301,213.718,126.787z M204.416,48.281
		c1.875-0.344,1.427,1.654,0.863,2.884c-1.859,4.054-3.563,8.263-6.028,11.94c-12.862,19.173-25.817,38.287-39.009,57.234
		c-5.145,7.389-10.983,14.296-16.528,21.405c-0.655,0.84-1.455,1.568-2.188,2.348C145.75,127.271,195.636,51.158,204.416,48.281z
		 M107.908,158.166c-4.073,4.491-6.537,6.848-10.753,11.208c-0.351,0.362-2.283,2.344-3.01,2.881
		c-0.91,0.671-2.349,1.396-3.095,1.076c-0.731-0.314-1.113-1.874-1.208-3.252c0.309-2.805,1.527-5.965,2.781-8.786
		c5.023-11.297,12.305-20.906,22.253-28.318c2.186-1.628,4.871-2.621,7.408-3.717c0.713-0.308,1.985-0.337,2.588,0.113
		c0.569,0.706,0.035,1.691-0.302,2.356C119.84,141.057,115,150.344,107.908,158.166z"/>
</g>
</svg>
